<svg width="40" height="40" viewBox="0 0 40 40" fill="none" xmlns="http://www.w3.org/2000/svg">
<path d="M20 0.523193C31.02 0.523193 40 9.34024 40 20.2041C40 31.0483 31.02 39.885 20 39.885C8.96 39.885 0 31.0483 0 20.2041C0 9.34024 8.96 0.523193 20 0.523193ZM14.12 16.327C13.54 15.7365 12.58 15.7365 12 16.3073C11.4 16.8977 11.4 17.8227 12 18.3935L18.94 25.2621C19.22 25.5376 19.6 25.6951 20 25.6951C20.4 25.6951 20.78 25.5376 21.06 25.2621L28 18.3935C28.3 18.1179 28.44 17.744 28.44 17.37C28.44 16.9764 28.3 16.6025 28 16.3073C27.4 15.7365 26.46 15.7365 25.88 16.327L20 22.1328L14.12 16.327Z" fill="black"/>
</svg>
