<svg width="34" height="33" viewBox="0 0 34 33" fill="none" xmlns="http://www.w3.org/2000/svg">
<g id="Iconly/Light-Outline/Buy">
<g id="Buy">
<path id="Combined-Shape" fill-rule="evenodd" clip-rule="evenodd" d="M8.7034 28.6278C9.90917 28.6278 10.8903 29.6073 10.8903 30.813C10.8903 32.0188 9.90917 33 8.7034 33C7.49763 33 6.51815 32.0188 6.51815 30.813C6.51815 29.6073 7.49763 28.6278 8.7034 28.6278ZM27.753 28.6278C28.9605 28.6278 29.9416 29.6073 29.9416 30.813C29.9416 32.0188 28.9605 33 27.753 33C26.5473 33 25.5678 32.0188 25.5678 30.813C25.5678 29.6073 26.5473 28.6278 27.753 28.6278ZM1.48263 0.0160214L4.99524 0.623977C5.56097 0.723615 5.9916 1.19309 6.04057 1.76727L6.43743 6.49751L7.91315 6.49814C8.15396 6.49825 8.39221 6.49836 8.62794 6.49846L11.3372 6.49975C11.5532 6.49986 11.7667 6.49997 11.9779 6.50008L14.9693 6.50172C15.1572 6.50183 15.3429 6.50194 15.5264 6.50205L17.6227 6.50339C17.7888 6.5035 17.9527 6.50361 18.1146 6.50372L19.9584 6.50508C20.1039 6.5052 20.2475 6.50531 20.3892 6.50542L21.9968 6.50681C22.1232 6.50692 22.2478 6.50704 22.3706 6.50715L23.4272 6.5082C23.5393 6.50832 23.6497 6.50844 23.7584 6.50856L24.982 6.50998C25.0774 6.5101 25.1712 6.51021 25.2635 6.51033L26.2966 6.51178C26.3767 6.5119 26.4553 6.51202 26.5325 6.51214L27.1891 6.51324C27.2579 6.51336 27.3254 6.51348 27.3915 6.5136L28.1229 6.51509C28.1788 6.51521 28.2335 6.51534 28.287 6.51546L28.7372 6.51659C28.7838 6.51671 28.8293 6.51684 28.8737 6.51696L29.3563 6.51849C29.3924 6.51861 29.4276 6.51874 29.4619 6.51887L29.7452 6.52002C29.774 6.52015 29.8019 6.52028 29.829 6.52041L30.1157 6.52197C30.1365 6.5221 30.1566 6.52224 30.176 6.52237L30.3322 6.52355C30.3476 6.52368 30.3624 6.52382 30.3766 6.52395L30.489 6.52515C30.4999 6.52528 30.5103 6.52542 30.5201 6.52555L30.5967 6.52676C30.6039 6.5269 30.6107 6.52703 30.6171 6.52717L30.6655 6.52839C30.6699 6.52853 30.6741 6.52867 30.6779 6.52881L30.713 6.53046L30.719 6.53087C30.7354 6.53241 30.7403 6.53297 30.7403 6.53297C31.6809 6.66976 32.5084 7.16119 33.0724 7.91776C33.6365 8.67264 33.8729 9.60315 33.7378 10.5353L32.1352 21.6103C31.8329 23.7179 30.0023 25.307 27.8744 25.307H9.43159C7.2075 25.307 5.32454 23.5709 5.14385 21.3502L3.59695 2.95279L1.052 2.51371C0.3613 2.39212 -0.0997292 1.73856 0.0184835 1.04786C0.140074 0.357152 0.807131 -0.0920597 1.48263 0.0160214ZM7.57435 9.03123L6.65021 9.03066L7.66853 21.1425C7.74283 22.0747 8.50446 22.7738 9.43496 22.7738H27.8711C28.7509 22.7738 29.5024 22.1186 29.6274 21.2489L31.2317 10.1723C31.2688 9.90882 31.203 9.64537 31.0425 9.43259C30.8838 9.21811 30.6508 9.07963 30.3873 9.04248C30.3751 9.04295 30.346 9.04337 30.3006 9.04376L30.117 9.04481C30.0785 9.04497 30.0363 9.04511 29.9903 9.04525L29.0336 9.04671C28.9529 9.04676 28.869 9.04681 28.7819 9.04686L26.5325 9.04676C26.407 9.04672 26.2792 9.04666 26.149 9.04661L23.5819 9.04505C23.4281 9.04493 23.2726 9.04482 23.1156 9.0447L21.663 9.04354C21.4976 9.0434 21.3309 9.04326 21.163 9.04311L19.6245 9.04176C19.4507 9.0416 19.2761 9.04144 19.1008 9.04129L18.0409 9.04031C17.8631 9.04015 17.6848 9.03998 17.506 9.03981L15.8887 9.0383C15.7084 9.03813 15.5279 9.03797 15.3475 9.0378L14.2656 9.03679C14.0855 9.03663 13.9057 9.03646 13.7262 9.03629L12.6534 9.03532C12.4756 9.03516 12.2982 9.035 12.1214 9.03485L10.55 9.03349C10.3779 9.03335 10.2067 9.03321 10.0365 9.03307L8.05068 9.03156C7.89042 9.03145 7.73161 9.03134 7.57435 9.03123ZM25.1588 12.7397C25.8579 12.7397 26.4253 13.3071 26.4253 14.0063C26.4253 14.7054 25.8579 15.2728 25.1588 15.2728H20.4775C19.7767 15.2728 19.211 14.7054 19.211 14.0063C19.211 13.3071 19.7767 12.7397 20.4775 12.7397H25.1588Z" fill="#767676"/>
</g>
</g>
</svg>
