<svg width="22" height="23" viewBox="0 0 22 23" fill="none" xmlns="http://www.w3.org/2000/svg">
<g id="Iconly/Light-Outline/Chat">
<g id="Chat">
<path id="Combined-Shape" fill-rule="evenodd" clip-rule="evenodd" d="M10.9955 0.505859C13.9345 0.505859 16.6966 1.64853 18.7712 3.72416C23.0595 8.01251 23.0595 14.9893 18.7712 19.2776C16.6689 21.3809 13.8383 22.4939 10.9709 22.4939C9.4078 22.4939 7.83445 22.1634 6.36238 21.4821C5.92863 21.3082 5.52251 21.1445 5.23096 21.1445C4.89542 21.1466 4.44429 21.3021 4.0085 21.4525C3.11441 21.7594 2.0014 22.142 1.1779 21.3215C0.357468 20.5001 0.735972 19.3901 1.04082 18.4971C1.1912 18.0572 1.34567 17.603 1.34567 17.2593C1.34567 16.9769 1.20961 16.6168 1.00092 16.0982C-0.915123 11.9602 -0.0292192 6.97316 3.2208 3.72519C5.29541 1.64955 8.05644 0.505859 10.9955 0.505859ZM10.9965 2.04033C8.46666 2.04033 6.09027 3.02444 4.30516 4.81057C1.50832 7.60536 0.747225 11.8968 2.40957 15.4905C2.64895 16.0828 2.88014 16.6598 2.88014 17.2593C2.88014 17.8577 2.67453 18.4602 2.49346 18.9922C2.3441 19.43 2.11802 20.0909 2.26329 20.2361C2.40548 20.3834 3.07042 20.1512 3.50928 20.0009C4.03612 19.8208 4.63354 19.6142 5.22585 19.6101C5.81918 19.6101 6.37875 19.8351 6.97105 20.0735C10.5996 21.7512 14.891 20.988 17.6868 18.1932C21.3757 14.5023 21.3757 8.49843 17.6868 4.80955C15.9007 3.02342 13.5253 2.04033 10.9965 2.04033ZM15.0341 10.9021C15.5988 10.9021 16.0571 11.3594 16.0571 11.9251C16.0571 12.4908 15.5988 12.9481 15.0341 12.9481C14.4694 12.9481 14.007 12.4908 14.007 11.9251C14.007 11.3594 14.4602 10.9021 15.0249 10.9021H15.0341ZM10.9332 10.9021C11.4979 10.9021 11.9562 11.3594 11.9562 11.9251C11.9562 12.4908 11.4979 12.9481 10.9332 12.9481C10.3685 12.9481 9.9061 12.4908 9.9061 11.9251C9.9061 11.3594 10.3583 10.9021 10.924 10.9021H10.9332ZM6.83183 10.9021C7.39651 10.9021 7.85481 11.3594 7.85481 11.9251C7.85481 12.4908 7.39651 12.9481 6.83183 12.9481C6.26714 12.9481 5.80475 12.4908 5.80475 11.9251C5.80475 11.3594 6.25793 10.9021 6.82262 10.9021H6.83183Z" fill="#949494"/>
</g>
</g>
</svg>
