<svg width="35" height="34" viewBox="0 0 35 34" fill="none" xmlns="http://www.w3.org/2000/svg">
<path fill-rule="evenodd" clip-rule="evenodd" d="M17.3209 1.75853C20.0726 0.0188156 23.728 -0.461805 26.8859 0.550206C33.755 2.76546 35.8874 10.254 33.9801 16.2127C31.0372 25.5712 18.4683 32.5521 17.9352 32.8449C17.7457 32.9498 17.5358 33.0022 17.326 33.0022C17.1161 33.0022 16.9079 32.9515 16.7184 32.8482C16.1887 32.5588 3.7112 25.6812 0.670087 16.2144L0.668395 16.2127C-1.24055 10.2523 0.885013 2.76207 7.74739 0.550206C10.9696 -0.492267 14.4812 -0.0336465 17.3209 1.75853ZM8.52586 2.96685C2.97334 4.75733 1.57887 10.7295 3.08673 15.4393C5.45937 22.8212 14.8332 28.79 17.3243 30.2674C19.8238 28.7748 29.2653 22.74 31.5618 15.4461C33.0697 10.7312 31.6701 4.75902 26.1091 2.96685C23.4149 2.10207 20.2723 2.62838 18.1027 4.30717C17.6492 4.65579 17.0196 4.66256 16.5627 4.31732C14.2645 2.58946 11.2624 2.08345 8.52586 2.96685ZM24.4845 6.32763C26.7911 7.07395 28.4073 9.11659 28.6053 11.5315C28.6612 12.2305 28.1416 12.8431 27.4427 12.8989C27.4071 12.9023 27.3733 12.904 27.3378 12.904C26.6828 12.904 26.1277 12.4014 26.0736 11.738C25.9619 10.3469 25.0311 9.17243 23.706 8.74428C23.0376 8.52766 22.672 7.8118 22.8869 7.14672C23.1052 6.47994 23.8143 6.11779 24.4845 6.32763Z" fill="#161515"/>
</svg>
