<svg width="22" height="15" viewBox="0 0 22 15" fill="none" xmlns="http://www.w3.org/2000/svg">
<path id="Vector" d="M0 0V1.36364H12.9545V11.5909H8.75727C8.45318 10.4189 7.39909 9.54545 6.13636 9.54545C4.87364 9.54545 3.81955 10.4189 3.51545 11.5909H2.72727V8.18182H1.36364V12.9545H3.51545C3.81955 14.1266 4.87364 15 6.13636 15C7.39909 15 8.45318 14.1266 8.75727 12.9545H14.4245C14.7286 14.1266 15.7827 15 17.0455 15C18.3082 15 19.3623 14.1266 19.6664 12.9545H21.8182V7.39364L21.7752 7.28659L20.4116 3.19568L20.2636 2.72727H14.3182V0H0ZM0.681818 2.72727V4.09091H6.81818V2.72727H0.681818ZM14.3182 4.09091H19.2825L20.4545 7.58523V11.5909H19.6664C19.3623 10.4189 18.3082 9.54545 17.0455 9.54545C15.7827 9.54545 14.7286 10.4189 14.4245 11.5909H14.3182V4.09091ZM1.36364 5.45455V6.81818H5.45455V5.45455H1.36364ZM6.13636 10.9091C6.89795 10.9091 7.5 11.5111 7.5 12.2727C7.5 13.0343 6.89795 13.6364 6.13636 13.6364C5.37477 13.6364 4.77273 13.0343 4.77273 12.2727C4.77273 11.5111 5.37477 10.9091 6.13636 10.9091ZM17.0455 10.9091C17.807 10.9091 18.4091 11.5111 18.4091 12.2727C18.4091 13.0343 17.807 13.6364 17.0455 13.6364C16.2839 13.6364 15.6818 13.0343 15.6818 12.2727C15.6818 11.5111 16.2839 10.9091 17.0455 10.9091Z" fill="black"/>
</svg>
