<svg width="53" height="53" viewBox="0 0 53 53" fill="none" xmlns="http://www.w3.org/2000/svg">
<g id="Google svg">
<path id="Vector" d="M49.82 27.0518C49.82 25.3293 49.6654 23.673 49.3783 22.083H26.5V31.4795H39.5733C39.0102 34.5159 37.2988 37.0886 34.726 38.8111V44.9061H42.5767C47.17 40.6772 49.82 34.4497 49.82 27.0518Z" fill="#4285F4"/>
<path id="Vector_2" d="M26.4999 50.7915C33.0587 50.7915 38.5574 48.6163 42.5766 44.9063L34.726 38.8113C32.5507 40.2688 29.7682 41.13 26.4999 41.13C20.173 41.13 14.8178 36.8569 12.9076 31.1152H4.79199V37.409C8.78908 45.3479 17.0041 50.7915 26.4999 50.7915Z" fill="#34A853"/>
<path id="Vector_3" d="M12.9074 31.1154C12.4216 29.6579 12.1455 28.101 12.1455 26.5C12.1455 24.8989 12.4216 23.3421 12.9074 21.8846V15.5908H4.79176C3.09134 18.9759 2.20651 22.7118 2.20801 26.5C2.20801 30.4198 3.14655 34.1298 4.79176 37.4092L12.9074 31.1154Z" fill="#FBBC05"/>
<path id="Vector_4" d="M26.4999 11.8695C30.0664 11.8695 33.2684 13.0951 35.7859 15.5022L42.7532 8.53488C38.5464 4.61509 33.0476 2.20801 26.4999 2.20801C17.0041 2.20801 8.78908 7.65155 4.79199 15.5905L12.9076 21.8843C14.8178 16.1426 20.173 11.8695 26.4999 11.8695Z" fill="#EA4335"/>
</g>
</svg>
