<svg width="36" height="34" viewBox="0 0 36 34" fill="none" xmlns="http://www.w3.org/2000/svg">
<g id="Iconly/Light-Outline/Heart">
<g id="Heart">
<path id="Combined-Shape" fill-rule="evenodd" clip-rule="evenodd" d="M18.0958 1.75853C20.8475 0.0188156 24.5029 -0.461805 27.6608 0.550206C34.5299 2.76546 36.6623 10.254 34.755 16.2127C31.8121 25.5712 19.2432 32.5521 18.7101 32.8449C18.5206 32.9498 18.3107 33.0022 18.1009 33.0022C17.891 33.0022 17.6829 32.9515 17.4933 32.8482C16.9636 32.5588 4.4861 25.6812 1.44499 16.2144L1.4433 16.2127C-0.465646 10.2523 1.65992 2.76207 8.52229 0.550206C11.7445 -0.492267 15.2561 -0.0336465 18.0958 1.75853ZM9.30076 2.96685C3.74824 4.75733 2.35377 10.7295 3.86163 15.4393C6.23427 22.8212 15.6081 28.79 18.0992 30.2674C20.5987 28.7748 30.0402 22.74 32.3367 15.4461C33.8446 10.7312 32.445 4.75902 26.884 2.96685C24.1898 2.10207 21.0472 2.62838 18.8776 4.30717C18.4241 4.65579 17.7945 4.66256 17.3376 4.31732C15.0394 2.58946 12.0373 2.08345 9.30076 2.96685ZM25.2594 6.32763C27.566 7.07395 29.1822 9.11659 29.3802 11.5315C29.4361 12.2305 28.9165 12.8431 28.2176 12.8989C28.182 12.9023 28.1482 12.904 28.1127 12.904C27.4577 12.904 26.9026 12.4014 26.8485 11.738C26.7368 10.3469 25.806 9.17243 24.4809 8.74428C23.8125 8.52766 23.4469 7.8118 23.6618 7.14672C23.8801 6.47994 24.5892 6.11779 25.2594 6.32763Z" fill="#767676"/>
</g>
</g>
</svg>
