<svg width="16" height="12" viewBox="0 0 16 12" fill="none" xmlns="http://www.w3.org/2000/svg">
<path id="Vector" d="M0 2.75C0 2.02065 0.289731 1.32118 0.805456 0.805456C1.32118 0.289731 2.02065 0 2.75 0H13.25C13.9793 0 14.6788 0.289731 15.1945 0.805456C15.7103 1.32118 16 2.02065 16 2.75V9.25C16 9.97935 15.7103 10.6788 15.1945 11.1945C14.6788 11.7103 13.9793 12 13.25 12H2.75C2.02065 12 1.32118 11.7103 0.805456 11.1945C0.289731 10.6788 0 9.97935 0 9.25V2.75ZM2.75 1C2.28587 1 1.84075 1.18437 1.51256 1.51256C1.18437 1.84075 1 2.28587 1 2.75V9.25C1 10.216 1.784 11 2.75 11H13.25C13.7141 11 14.1592 10.8156 14.4874 10.4874C14.8156 10.1592 15 9.71413 15 9.25V2.75C15 2.28587 14.8156 1.84075 14.4874 1.51256C14.1592 1.18437 13.7141 1 13.25 1H2.75ZM9 2.5C9 2.36739 9.05268 2.24021 9.14645 2.14645C9.24021 2.05268 9.36739 2 9.5 2H11.5C11.6326 2 11.7598 2.05268 11.8536 2.14645C11.9473 2.24021 12 2.36739 12 2.5V4.5C12 4.63261 11.9473 4.75979 11.8536 4.85355C11.7598 4.94732 11.6326 5 11.5 5C11.3674 5 11.2402 4.94732 11.1464 4.85355C11.0527 4.75979 11 4.63261 11 4.5V3.707L9.354 5.354C9.26011 5.44789 9.13278 5.50063 9 5.50063C8.86722 5.50063 8.73989 5.44789 8.646 5.354C8.55211 5.26011 8.49937 5.13278 8.49937 5C8.49937 4.86722 8.55211 4.73989 8.646 4.646L10.293 3H9.5C9.36739 3 9.24021 2.94732 9.14645 2.85355C9.05268 2.75979 9 2.63261 9 2.5ZM6.646 6.646C6.73989 6.55211 6.86722 6.49937 7 6.49937C7.13278 6.49937 7.26011 6.55211 7.354 6.646C7.44789 6.73989 7.50063 6.86722 7.50063 7C7.50063 7.13278 7.44789 7.26011 7.354 7.354L5.707 9H6.5C6.63261 9 6.75979 9.05268 6.85355 9.14645C6.94732 9.24021 7 9.36739 7 9.5C7 9.63261 6.94732 9.75979 6.85355 9.85355C6.75979 9.94732 6.63261 10 6.5 10H4.5C4.36739 10 4.24021 9.94732 4.14645 9.85355C4.05268 9.75979 4 9.63261 4 9.5V7.5C4 7.36739 4.05268 7.24021 4.14645 7.14645C4.24021 7.05268 4.36739 7 4.5 7C4.63261 7 4.75979 7.05268 4.85355 7.14645C4.94732 7.24021 5 7.36739 5 7.5V8.293L6.646 6.646Z" fill="black"/>
</svg>
