<svg width="40" height="40" viewBox="0 0 40 40" fill="none" xmlns="http://www.w3.org/2000/svg">
<path d="M20 39.3618C8.98 39.3618 0 30.5448 0 19.6809C0 8.83674 8.98 1.52588e-05 20 1.52588e-05C31.04 1.52588e-05 40 8.83674 40 19.6809C40 30.5448 31.04 39.3618 20 39.3618ZM25.88 23.5581C26.46 24.1485 27.42 24.1485 28 23.5777C28.6 22.9873 28.6 22.0623 28 21.4916L21.06 14.6229C20.78 14.3474 20.4 14.1899 20 14.1899C19.6 14.1899 19.22 14.3474 18.94 14.6229L12 21.4916C11.7 21.7671 11.56 22.141 11.56 22.515C11.56 22.9086 11.7 23.2825 12 23.5777C12.6 24.1485 13.54 24.1485 14.12 23.5581L20 17.7522L25.88 23.5581Z" fill="white"/>
</svg>
