<svg width="42" height="63" viewBox="0 0 42 63" fill="none" xmlns="http://www.w3.org/2000/svg">
<path id="Vector" d="M37.8925 35.7809C37.9653 36.0265 38.0863 36.2552 38.2485 36.4535C38.4106 36.6518 38.6107 36.8158 38.837 36.9359C39.0633 37.056 39.3113 37.1298 39.5664 37.1529C39.8215 37.1761 40.0787 37.1481 40.3229 37.0707C40.8197 36.9137 41.2349 36.5679 41.4791 36.1077C41.7234 35.6475 41.777 35.1098 41.6286 34.6104L34.6537 11.4462C32.6605 7.01472 29.9211 3.9412 26.4346 2.31145C22.0406 0.260768 17.8451 0.123679 13.5989 1.29828C9.27005 2.49613 5.34046 5.39783 2.83758 10.1141C0.916772 13.7336 0.278088 17.4776 0.999006 21.4831L10.6066 54.5681C11.8178 57.4632 13.7498 59.5779 16.3566 60.8303C19.6686 62.4154 22.6347 62.6477 25.3676 61.8265C28.5658 60.8688 31.2027 59.0063 33.019 55.5838C34.4636 52.8617 34.8573 49.8502 34.1694 46.4629L25.6216 17.5153C24.9725 15.1262 24.012 13.4024 22.638 12.3794C21.7232 11.6924 20.6542 11.2395 19.5243 11.0603C18.3943 10.8811 17.2377 10.9809 16.1552 11.3511C14.0843 12.0507 12.5872 13.499 11.7297 15.5966C11.1458 17.0279 11.0376 18.5743 11.4234 20.3157L19.25 46.986C19.3214 47.2317 19.441 47.4607 19.6019 47.6597C19.7627 47.8587 19.9616 48.0236 20.1868 48.145C20.4121 48.2663 20.6592 48.3415 20.9139 48.3664C21.1685 48.3912 21.4256 48.365 21.67 48.2895C22.1677 48.1355 22.5851 47.7922 22.8321 47.3335C23.0791 46.8748 23.136 46.3374 22.9906 45.8371L15.1987 19.3001C15.011 18.4497 15.0628 17.72 15.3338 17.0588C15.7632 16.0088 16.3928 15.4004 17.3614 15.0742C17.8531 14.9048 18.379 14.8595 18.8923 14.9424C19.4057 15.0254 19.8906 15.2339 20.3039 15.5495C20.8607 15.9632 21.4159 16.9639 21.8704 18.6299L30.3859 47.4518C30.858 49.7949 30.5867 51.8713 29.5827 53.7633C28.3207 56.1414 26.5571 57.3876 24.2898 58.0661C22.484 58.6093 20.5057 58.454 18.0598 57.2838C16.329 56.4516 15.0562 55.0573 14.2775 53.2255L4.78858 20.555C4.27476 17.6402 4.75925 14.7888 6.27129 11.9395C8.23179 8.24527 11.2602 6.01226 14.5978 5.08705C18.0065 4.1421 21.271 4.25156 24.7612 5.88014C27.3427 7.08397 29.459 9.45941 31.0152 12.8602L37.8925 35.7809Z" fill="#252525"/>
</svg>
