<svg width="47" height="37" viewBox="0 0 47 37" fill="none" xmlns="http://www.w3.org/2000/svg">
<path id="Vector" d="M45.0938 25.4375H43.9375V17.6256C43.9375 16.7078 43.5689 15.8262 42.9186 15.1758L35.6992 7.95645C35.0488 7.30605 34.1672 6.9375 33.2494 6.9375H30.0625V3.46875C30.0625 1.55371 28.5088 0 26.5938 0H8.09375C6.17871 0 4.625 1.55371 4.625 3.46875V6.9375H0.578125C0.260156 6.9375 0 7.19766 0 7.51562V8.67188C0 8.98984 0.260156 9.25 0.578125 9.25H20.2344C20.5523 9.25 20.8125 9.51016 20.8125 9.82812V10.9844C20.8125 11.3023 20.5523 11.5625 20.2344 11.5625H2.89062C2.57266 11.5625 2.3125 11.8227 2.3125 12.1406V13.2969C2.3125 13.6148 2.57266 13.875 2.89062 13.875H17.9219C18.2398 13.875 18.5 14.1352 18.5 14.4531V15.6094C18.5 15.9273 18.2398 16.1875 17.9219 16.1875H0.578125C0.260156 16.1875 0 16.4477 0 16.7656V17.9219C0 18.2398 0.260156 18.5 0.578125 18.5H15.6094C15.9273 18.5 16.1875 18.7602 16.1875 19.0781V20.2344C16.1875 20.5523 15.9273 20.8125 15.6094 20.8125H4.625V30.0625C4.625 33.8926 7.73242 37 11.5625 37C15.3926 37 18.5 33.8926 18.5 30.0625H27.75C27.75 33.8926 30.8574 37 34.6875 37C38.5176 37 41.625 33.8926 41.625 30.0625H45.0938C45.7297 30.0625 46.25 29.5422 46.25 28.9062V26.5938C46.25 25.9578 45.7297 25.4375 45.0938 25.4375ZM11.5625 33.5312C9.64746 33.5312 8.09375 31.9775 8.09375 30.0625C8.09375 28.1475 9.64746 26.5938 11.5625 26.5938C13.4775 26.5938 15.0312 28.1475 15.0312 30.0625C15.0312 31.9775 13.4775 33.5312 11.5625 33.5312ZM34.6875 33.5312C32.7725 33.5312 31.2188 31.9775 31.2188 30.0625C31.2188 28.1475 32.7725 26.5938 34.6875 26.5938C36.6025 26.5938 38.1562 28.1475 38.1562 30.0625C38.1562 31.9775 36.6025 33.5312 34.6875 33.5312ZM40.4688 18.5H30.0625V10.4062H33.2494L40.4688 17.6256V18.5Z" fill="black"/>
</svg>
