<svg width="44" height="41" viewBox="0 0 44 41" fill="none" xmlns="http://www.w3.org/2000/svg">
<g id="Group">
<path id="Vector" d="M38.6161 12.2991H6.17857C4.47946 12.2991 3.08929 10.9089 3.08929 9.20982C3.08929 7.51071 4.47946 6.12054 6.17857 6.12054H12.3571C13.2839 6.12054 13.9018 5.50268 13.9018 4.57589C13.9018 3.64911 13.2839 3.03125 12.3571 3.03125H6.17857C2.78036 3.03125 0 5.81161 0 9.20982V33.9241C0 37.3223 2.78036 40.1027 6.17857 40.1027H38.6161C41.242 40.1027 43.25 38.0946 43.25 35.4688V16.933C43.25 14.3071 41.242 12.2991 38.6161 12.2991ZM40.1607 21.258V31.1438C39.6973 30.9893 39.2339 30.8348 38.6161 30.8348H32.4375C29.8116 30.8348 27.8036 28.8268 27.8036 26.2009C27.8036 23.575 29.8116 21.567 32.4375 21.567H38.6161C39.2339 21.567 39.6973 21.4125 40.1607 21.258Z" fill="black"/>
<path id="Vector_2" d="M7.72322 7.66552C6.79643 7.66552 6.17857 8.28337 6.17857 9.21016C6.17857 10.1369 6.79643 10.7548 7.72322 10.7548H13.9018H37.0714C37.5348 10.7548 37.9982 10.4459 38.3071 10.1369C38.6161 9.67355 38.6161 9.21016 38.4616 8.74677L35.3723 1.02355C35.0634 0.251231 34.1366 -0.212163 33.3643 0.096766L13.5929 7.66552H7.72322Z" fill="black"/>
<path id="Vector_3" d="M35.5268 24.6562H32.4375C31.5107 24.6562 30.8928 25.2741 30.8928 26.2009C30.8928 27.1277 31.5107 27.7455 32.4375 27.7455H35.5268C36.4535 27.7455 37.0714 27.1277 37.0714 26.2009C37.0714 25.2741 36.4535 24.6562 35.5268 24.6562Z" fill="black"/>
</g>
</svg>
